<?xml version="1.0" encoding="UTF-8" standalone="no"?>
<!-- Created with Inkscape (http://www.inkscape.org/) -->

<svg
   xmlns:dc="http://purl.org/dc/elements/1.1/"
   xmlns:cc="http://creativecommons.org/ns#"
   xmlns:rdf="http://www.w3.org/1999/02/22-rdf-syntax-ns#"
   xmlns:svg="http://www.w3.org/2000/svg"
   xmlns="http://www.w3.org/2000/svg"
   xmlns:sodipodi="http://sodipodi.sourceforge.net/DTD/sodipodi-0.dtd"
   xmlns:inkscape="http://www.inkscape.org/namespaces/inkscape"
   width="133.39899mm"
   height="97.715233mm"
   viewBox="0 0 472.67358 346.23508"
   id="svg2"
   version="1.1"
   inkscape:version="0.91 r13725"
   sodipodi:docname="door_welcome_inkscape.svg">
  <defs
     id="defs4" />
  <sodipodi:namedview
     id="base"
     pagecolor="#ffffff"
     bordercolor="#666666"
     borderopacity="1.0"
     inkscape:pageopacity="0.0"
     inkscape:pageshadow="2"
     inkscape:zoom="1"
     inkscape:cx="154.26047"
     inkscape:cy="193.66184"
     inkscape:document-units="px"
     inkscape:current-layer="layer1"
     showgrid="false"
     inkscape:snap-center="true"
     inkscape:snap-global="false"
     inkscape:snap-bbox="true"
     inkscape:snap-bbox-edge-midpoints="true"
     inkscape:bbox-nodes="true"
     inkscape:snap-bbox-midpoints="true"
     inkscape:bbox-paths="true"
     inkscape:snap-intersection-paths="true"
     inkscape:object-nodes="true"
     inkscape:snap-smooth-nodes="true"
     inkscape:window-width="1233"
     inkscape:window-height="776"
     inkscape:window-x="47"
     inkscape:window-y="24"
     inkscape:window-maximized="1"
     fit-margin-top="0"
     fit-margin-left="0"
     fit-margin-right="0"
     fit-margin-bottom="0" />
  <metadata
     id="metadata7">
    <rdf:RDF>
      <cc:Work
         rdf:about="">
        <dc:format>image/svg+xml</dc:format>
        <dc:type
           rdf:resource="http://purl.org/dc/dcmitype/StillImage" />
        <dc:title></dc:title>
      </cc:Work>
    </rdf:RDF>
  </metadata>
  <g
     inkscape:label="Livello 1"
     inkscape:groupmode="layer"
     id="layer1"
     transform="translate(-177.05052,-300.65154)">
    <path
       style="opacity:1;fill:#ca7372;fill-opacity:0.97647059;fill-rule:evenodd;stroke:#000000;stroke-width:2.82909465;stroke-miterlimit:4;stroke-dasharray:none;stroke-opacity:1"
       d="m 280.36784,337.99035 c 74.5674,7.68045 189.55374,-5.02737 271.17545,-7.07107 33.19403,-0.83113 84.17828,0.38471 90.7149,41.15355 l 4.59894,209.53937 c 10.01249,84.40305 -32.8825,32.41798 -121.35746,31.69614 C 460.63855,612.77916 374.5455,658.37889 300.91036,641.85863 121.08718,607.25928 161.38548,325.73515 280.36784,337.99035 Z"
       id="rect8070"
       inkscape:connector-curvature="0"
       sodipodi:nodetypes="ssccscs" />
    <rect
       style="opacity:1;fill:#d5410a;fill-opacity:0.97647059;fill-rule:evenodd;stroke:#000000;stroke-width:3.30908895;stroke-miterlimit:4;stroke-dasharray:none;stroke-opacity:1"
       id="rect8068"
       width="398.0791"
       height="220.93626"
       x="216.67473"
       y="359.03693"
       ry="110.46813" />
    <path
       style="opacity:1;fill:#c2d600;fill-opacity:1;fill-rule:evenodd;stroke:#000000;stroke-width:2.82909465;stroke-miterlimit:4;stroke-dasharray:none;stroke-opacity:1"
       d="m 350.95934,310.04097 c -12.16975,10.40651 -15.03888,27.02411 -6.40817,37.11532 2.97061,3.46913 7.07158,5.84636 11.82289,6.85346 l 46.17593,26.76621 c 7.29268,0.71945 11.2213,-0.17072 11.69391,-8.2118 l -20.76237,-51.06051 c -0.37393,-4.57252 -2.05389,-8.73005 -4.86203,-12.03251 -8.62934,-10.09238 -25.49088,-9.83725 -37.66016,0.56983 z"
       id="path8119"
       inkscape:connector-curvature="0"
       sodipodi:nodetypes="cccccccc" />
    <circle
       style="opacity:1;fill:#fcb617;fill-opacity:0.97647059;fill-rule:evenodd;stroke:#000000;stroke-width:2.82909465;stroke-miterlimit:4;stroke-dasharray:none;stroke-opacity:1"
       id="path8127"
       cx="610.25"
       cy="587.61218"
       r="21.75" />
    <path
       style="opacity:1;fill:#fcb519;fill-opacity:1;fill-rule:evenodd;stroke:#000000;stroke-width:1.55152321;stroke-miterlimit:4;stroke-dasharray:none;stroke-opacity:1"
       id="path8148"
       d="m 478.25926,393.25655 c -0.79707,5.37192 -1.38495,10.77308 -1.88366,16.18043 -0.45056,4.84114 -1.15277,9.6505 -2.27962,14.38045 -0.41861,1.94346 -0.96306,3.85548 -1.50477,5.767 0,0 -9.9977,4.7117 -9.9977,4.7117 l 0,0 c 0.67151,-1.9022 1.33114,-3.81136 1.74931,-5.78973 1.0985,-4.73395 1.94571,-9.50982 2.50764,-14.33841 0.59102,-5.21819 1.31272,-10.45345 1.21291,-15.71638 0,0 10.19589,-5.19506 10.19589,-5.19506 z"
       inkscape:connector-curvature="0" />
    <path
       style="opacity:1;fill:#fcb519;fill-opacity:1;fill-rule:evenodd;stroke:#000000;stroke-width:1.55152321;stroke-miterlimit:4;stroke-dasharray:none;stroke-opacity:1"
       id="path8162"
       d="m 329.01407,392.75497 c -0.16954,2.15227 -0.0717,4.30999 -0.0666,6.46515 -0.099,3.13985 -0.15547,6.27985 -0.0785,9.42067 -0.12688,3.43401 -0.57231,6.83743 -1.37124,10.17742 -0.45269,2.33403 -1.45122,4.50961 -1.97129,6.81798 -0.31314,1.73971 -0.80703,3.44335 -1.01976,5.19974 0,0 -10.22068,5.04276 -10.22068,5.04276 l 0,0 c 0.25031,-1.81817 0.67875,-3.56883 1.1699,-5.33784 0.0674,-0.47712 0.24173,-1.88953 0.40394,-2.38884 0.0922,-0.2837 0.27529,-0.5296 0.39849,-0.80127 0.54917,-1.21106 0.84866,-2.49114 1.24469,-3.75672 0.911,-3.22466 1.37858,-6.55494 1.46037,-9.90608 0.0744,-3.11419 0.0245,-6.22751 -0.0786,-9.34064 0.005,-2.13248 0.1051,-4.2679 -0.0666,-6.39727 0,0 10.19589,-5.19506 10.19589,-5.19506 z"
       inkscape:connector-curvature="0" />
    <path
       style="opacity:1;fill:#fcb519;fill-opacity:1;fill-rule:evenodd;stroke:#000000;stroke-width:1.55152321;stroke-miterlimit:4;stroke-dasharray:none;stroke-opacity:1"
       id="path8164"
       d="m 325.75364,429.21292 c 1.55844,-0.2609 3.13324,-0.38376 4.70973,-0.46428 1.8185,-0.0379 3.63666,-0.0729 5.4555,-0.0546 1.93631,0.003 3.8724,-0.003 5.80864,0.0164 1.87666,-0.008 3.75262,-0.0273 5.62929,-0.006 1.59164,0.0998 3.22765,-0.29445 4.73645,0.31103 0,0 -9.50687,6.45779 -9.50687,6.45779 l 0,0 c -1.41918,-0.3163 -2.92878,-0.0254 -4.36625,-0.13074 -1.87011,0.0203 -3.73945,0.002 -5.60952,-0.009 -1.94644,0.0167 -3.89266,0.005 -5.83913,0.009 -1.81445,0.0251 -3.63129,0.001 -5.44252,0.13027 -1.586,0.11869 -3.18133,0.274 -4.7128,0.72681 0,0 9.13748,-6.98705 9.13748,-6.98705 z"
       inkscape:connector-curvature="0" />
    <path
       style="opacity:1;fill:#fcb519;fill-opacity:1;fill-rule:evenodd;stroke:#000000;stroke-width:1.55152321;stroke-miterlimit:4;stroke-dasharray:none;stroke-opacity:1"
       id="path8170"
       d="m 369.47643,394.92442 c -3.11124,0.71034 -5.89472,2.28317 -8.67818,3.78031 -4.93883,2.89518 2.00654,-1.18377 6.57547,-3.73436 0.38471,-0.21476 -0.74385,0.47286 -1.1063,0.72337 -0.74394,0.51419 -1.38392,1.05943 -1.99821,1.71703 -1.20992,1.78869 -1.38978,4.00437 -1.86058,6.06091 -0.64239,2.58126 -1.04851,5.19683 -1.24454,7.84692 -0.10879,2.31126 -0.13363,4.62574 -0.0248,6.93714 0.0402,0.88646 0.044,1.77354 0.0635,2.66043 0.008,0.0902 -0.0271,0.19653 0.025,0.27064 0.12994,0.18476 2.98455,0.98015 3.30785,1.05868 1.92818,0.4113 3.90491,0.45035 5.86772,0.49941 2.40191,0.0378 4.80458,0.0197 7.20663,-10e-4 1.97208,-0.004 3.94389,-0.0207 5.91599,-0.0276 2.00828,0.0821 2.65837,0.086 4.39928,-0.86548 4.26118,-2.4043 -5.57671,3.24304 -8.39704,4.80781 -0.2359,0.13088 0.43934,-0.31663 0.63237,-0.50509 0.90907,-0.88758 1.54204,-1.99911 2.21381,-3.06334 1.11398,-1.8781 2.05459,-3.8532 2.5421,-5.98605 0.28291,-1.63728 0.24812,-3.30125 0.24194,-4.95561 0.14153,-1.60704 -0.21395,-2.9419 -0.96816,-4.34707 -1.46987,-2.43271 -3.72495,-4.2803 -6.03732,-5.87881 -1.78291,-1.31445 -3.54914,-2.67796 -5.50224,-3.73335 -1.7064,-0.73009 -3.43717,-1.36524 -5.24695,-1.78227 -1.08009,-0.12453 -2.11214,-0.33756 -3.14699,-0.66643 0,0 9.43903,-6.43038 9.43903,-6.43038 l 0,0 c 0.99144,0.30372 2.01475,0.43275 3.0195,0.68551 1.8617,0.53389 3.74024,1.13466 5.45918,2.03238 1.85945,1.23016 3.66972,2.56035 5.44134,3.90786 2.29475,1.85098 4.68736,3.80215 6.35182,6.24696 1.02991,1.82743 1.46246,2.65863 1.34061,4.79259 -0.003,1.72723 -0.0539,3.45768 -0.22813,5.17681 -0.32067,2.33208 -1.39272,4.37493 -2.52266,6.42175 -3.378,6.00673 -4.63084,6.61469 -13.51527,10.33537 -1.52499,0.58869 -3.06263,0.5116 -4.68024,0.46576 -1.95322,-0.004 -3.90624,-0.0157 -5.85944,-0.0115 -2.40043,-0.011 -4.80084,-0.009 -7.20118,-0.0375 -2.04259,-0.0419 -4.09093,-0.12442 -6.07197,-0.67925 -1.52148,-0.43117 -3.72813,-0.79353 -4.28132,-2.50112 0.013,-0.90707 0.005,-1.81435 0.043,-2.72109 0.1114,-2.372 0.12976,-4.74624 0.24105,-7.11829 0.11559,-2.70859 0.35087,-5.37689 1.1456,-7.98724 0.42375,-2.14178 0.55387,-4.37637 1.47178,-6.38368 0.71992,-1.30659 1.91538,-2.20179 3.19419,-2.95929 8.82842,-5.22948 7.5207,-4.48679 12.33675,-7.17248 2.91594,-1.53542 5.88268,-2.91793 9.04277,-3.88352 0,0 -8.94681,7.00402 -8.94681,7.00402 z"
       inkscape:connector-curvature="0" />
    <path
       style="opacity:1;fill:#fcb519;fill-opacity:1;fill-rule:evenodd;stroke:#000000;stroke-width:1.08443189;stroke-miterlimit:4;stroke-dasharray:none;stroke-opacity:1"
       id="path8155"
       d="m 455.16854,396.58686 c 0.53894,1.39944 0.52832,2.85117 0.6228,4.28174 0.0584,1.95697 0.12415,3.91393 0.14513,5.87123 0.0703,1.472 0.0666,2.9444 0.0635,4.41679 -0.0175,1.4336 -0.003,2.86721 0.002,4.30089 0.0573,1.14162 -0.002,2.28404 0.10173,3.42462 0.17497,0.86784 0.3509,1.73262 0.43724,2.60597 0.0763,0.88121 0.0608,1.76492 0.0524,2.64731 0.0147,0.7301 0.0119,1.46011 0.0142,2.19021 0,0 -9.31351,2.99829 -9.31351,2.99829 l 0,0 c 0.004,-0.73293 0.005,-1.46575 0.0179,-2.19867 -0.013,-0.86789 -0.0217,-1.7353 -0.0698,-2.60278 -0.0634,-0.87584 -0.1976,-1.74833 -0.351,-2.61958 -0.16376,-1.16382 -0.0106,-2.33776 -0.021,-3.50502 0.006,-1.43487 0.0211,-2.86963 0.007,-4.30443 7.9e-4,-1.48642 0.006,-2.97273 0.0727,-4.45874 0.0102,-1.95123 0.0629,-3.90409 -0.0995,-5.85364 -0.1091,-1.3126 -0.17426,-2.68712 -0.95356,-3.92228 0,0 9.27154,-3.27191 9.27154,-3.27191 z"
       inkscape:connector-curvature="0" />
    <path
       style="opacity:1;fill:#fcb519;fill-opacity:1;fill-rule:evenodd;stroke:#000000;stroke-width:1.329;stroke-miterlimit:4;stroke-dasharray:none;stroke-opacity:1"
       id="path8157"
       d="m 433.11033,396.43879 c -1.30833,-0.0808 -2.62082,-0.0806 -3.9313,-0.0838 -1.63432,-0.025 -3.26849,0.0137 -4.90275,0.0141 -1.31534,0.0159 -2.63068,0.009 -3.94606,0.0153 -1.49967,-0.006 -2.99924,-0.0272 -4.49904,-0.0337 -1.58877,-0.006 -3.17749,0.0133 -4.76623,0.0224 -1.45095,-0.0216 -2.9019,0.006 -4.35284,0.002 -1.29213,0.0118 -2.58422,0.004 -3.87635,0.01 -1.24412,-0.006 -2.4884,0.009 -3.73249,-0.002 -0.21267,-9e-5 -0.42533,-1.8e-4 -0.63799,-2.8e-4 0,0 8.24713,-5.99189 8.24713,-5.99189 l 0,0 c 0.21292,-9e-5 0.42584,-1.9e-4 0.63876,-2.8e-4 1.2455,-0.01 2.49118,0.004 3.73669,-0.002 1.28329,0.005 2.56652,-0.002 3.8498,0.01 1.44939,-0.005 2.89878,0.0233 4.34818,0.002 1.56819,0.009 3.13635,0.0284 4.70456,0.0224 1.53069,-0.006 3.06116,-0.0276 4.59171,-0.0337 1.30139,0.006 2.60274,-8e-4 3.90409,0.0152 1.62134,3.3e-4 3.24259,0.0393 4.864,0.0141 1.38748,-0.003 2.77638,-0.007 4.16204,-0.0838 0,0 -8.40191,6.10435 -8.40191,6.10435 z"
       inkscape:connector-curvature="0" />
    <path
       style="opacity:1;fill:#fcb519;fill-opacity:1;fill-rule:evenodd;stroke:#000000;stroke-width:1.329;stroke-miterlimit:4;stroke-dasharray:none;stroke-opacity:1"
       id="path8159"
       d="m 407.67722,391.26843 c -0.13896,1.37188 -0.11612,2.75756 -0.10373,4.1353 -0.0358,1.32558 0.23418,2.62788 0.35589,3.94197 0.13162,1.26569 0.14134,2.53753 0.16297,3.80833 1.6e-4,1.2467 0.0186,2.49399 0.002,3.74069 0.0811,1.28368 -0.12189,2.546 -0.27403,3.81491 -0.16357,1.22449 -0.17912,2.45896 -0.21816,3.6914 -0.007,1.25106 -0.0178,2.50216 -0.0101,3.75325 -0.008,1.24642 0.0143,2.49318 -4.1e-4,3.73956 -0.002,1.17512 0.0132,2.35019 0.0213,3.52527 0.0132,0.73474 -0.005,1.46919 -0.0103,2.20387 0,0 -9.10471,4.63907 -9.10471,4.63907 l 0,0 c -0.005,-0.73118 -0.0235,-1.46212 -0.0103,-2.19337 0.008,-1.18209 0.0232,-2.36417 0.0207,-3.54631 -0.0156,-1.24519 0.006,-2.49079 -0.005,-3.73601 0.005,-1.25713 -0.0112,-2.51409 0.008,-3.77119 -7.5e-4,-1.2622 0.0441,-2.52796 0.16656,-3.78423 0.14861,-1.23447 0.396,-2.46073 0.33222,-3.70876 -0.0142,-1.24266 0.0105,-2.48562 -0.004,-3.72833 -0.002,-1.24662 -0.0254,-2.49431 -0.11056,-3.73829 -0.12887,-1.3467 -0.36994,-2.69026 -0.36879,-4.04269 0.012,-1.34218 0.04,-2.69401 -0.10373,-4.0296 0,0 9.2534,-4.71484 9.2534,-4.71484 z"
       inkscape:connector-curvature="0" />
    <path
       style="opacity:1;fill:#fcb519;fill-opacity:1;fill-rule:evenodd;stroke:#000000;stroke-width:1.329;stroke-miterlimit:4;stroke-dasharray:none;stroke-opacity:1"
       id="path8161"
       d="m 407.60777,425.70316 c 0.77944,0.46238 1.70062,0.53809 2.58331,0.61716 1.69825,0.11015 3.40109,0.11402 5.10195,0.14892 2.23721,0.0231 4.47456,-0.001 6.71153,-0.0339 1.4578,-0.0313 2.91591,-0.0343 4.37394,-0.0476 1.25554,0.002 2.51104,0.002 3.76657,0.002 1.21651,0.0622 2.40285,-0.21461 3.60681,-0.35432 0.65401,-0.0205 1.28614,-0.0768 1.92605,-0.20845 0,0 -8.15644,6.11122 -8.15644,6.11122 l 0,0 c -0.65121,0.0613 -1.30411,0.10728 -1.95236,0.1963 -1.22146,0.15806 -2.43577,0.33249 -3.67238,0.24798 -1.25768,6.1e-4 -2.51533,2.5e-4 -3.77302,0.003 -1.41589,-0.0128 -2.83185,-0.0144 -4.24754,-0.0433 -2.21184,-0.0291 -4.42396,-0.0451 -6.63597,-0.0249 -1.79261,0.0273 -3.59216,0.069 -5.38003,-0.0894 -1.05077,-0.14679 -2.08385,-0.3695 -3.00806,-0.91859 0,0 8.75564,-5.60615 8.75564,-5.60615 z"
       inkscape:connector-curvature="0" />
    <path
       style="opacity:1;fill:#fcb519;fill-opacity:1;fill-rule:evenodd;stroke:#000000;stroke-width:1.329;stroke-miterlimit:4;stroke-dasharray:none;stroke-opacity:1"
       id="path8165"
       d="m 424.94531,432.28504 c 0.59559,-1.15632 1.05825,-2.38648 1.53408,-3.59816 0.42935,-1.24713 1.03606,-2.41593 1.65499,-3.57642 0.54113,-1.04342 0.81812,-2.19446 1.12803,-3.32107 0.32716,-1.05931 0.5387,-2.13977 0.9554,-3.16957 0.36361,-0.80055 0.55848,-1.64857 0.67482,-2.51528 0,0 9.15284,-4.54593 9.15284,-4.54593 l 0,0 c -0.0699,0.94657 -0.15383,1.8894 -0.53031,2.77461 -0.44585,1.05403 -0.76199,1.96648 -1.01264,3.09233 -0.39843,1.14819 -0.60359,2.36127 -1.05814,3.4893 -0.58969,1.16853 -1.33246,2.26576 -1.7506,3.51502 -0.48702,1.16746 -0.98313,2.35764 -1.29882,3.57985 0,0 -9.44965,4.27532 -9.44965,4.27532 z"
       inkscape:connector-curvature="0" />
    <path
       style="opacity:1;fill:#fcb519;fill-opacity:1;fill-rule:evenodd;stroke:#000000;stroke-width:1.329;stroke-miterlimit:4;stroke-dasharray:none;stroke-opacity:1"
       id="path8167"
       d="m 431.51391,418.92194 c -1.78148,-0.12177 -3.56903,-0.10288 -5.3534,-0.0824 -1.51241,0.0112 -3.02496,0.0428 -4.53745,0.0385 -1.27509,-0.0259 -2.55839,0.0967 -3.82249,-0.0929 -1.25178,-0.28569 -2.54955,-0.15616 -3.7627,-0.56685 0,0 8.38056,-5.78998 8.38056,-5.78998 l 0,0 c 1.22834,0.16425 2.46426,0.27173 3.69238,0.44027 1.24824,0.0464 2.49799,0.005 3.74687,0.0267 1.47719,-0.004 2.95444,0.0268 4.43155,0.0385 1.86016,0.0221 3.72249,0.0314 5.5802,-0.0824 0,0 -8.35552,6.07065 -8.35552,6.07065 z"
       inkscape:connector-curvature="0" />
    <path
       style="opacity:1;fill:#fcb519;fill-opacity:1;fill-rule:evenodd;stroke:#000000;stroke-width:1.329;stroke-miterlimit:4;stroke-dasharray:none;stroke-opacity:1"
       id="path8169"
       d="m 477.67672,393.55987 c 0.54897,1.30407 1.21888,2.54336 1.96893,3.7416 0.96483,1.58932 1.74003,3.28033 2.73173,4.8558 0.7965,1.53075 1.60867,3.04815 2.53363,4.50637 1.0225,1.46891 2.18965,2.8338 3.32259,4.21898 1.18009,1.36376 2.4242,2.67144 3.69507,3.95055 1.2294,1.26434 2.50315,2.48494 3.73435,3.74739 1.14822,1.18617 2.41525,2.25616 3.42175,3.57007 0.6341,1.03093 1.21305,2.08929 1.64754,3.21967 0.38107,1.26273 1.08308,2.37871 1.62728,3.57126 0.11421,0.22729 0.22842,0.45458 0.34264,0.68186 0,0 -8.79613,5.02079 -8.79613,5.02079 l 0,0 c -0.12198,-0.23277 -0.24395,-0.46554 -0.36592,-0.69832 -0.60196,-1.18419 -1.32716,-2.31256 -1.71886,-3.59167 -0.44702,-1.03352 -0.93495,-2.03754 -1.49488,-3.01636 -0.91874,-1.30693 -2.14666,-2.34746 -3.24753,-3.49606 -1.26717,-1.2323 -2.49641,-2.50389 -3.74522,-3.75453 -1.26785,-1.31586 -2.54831,-2.62023 -3.71416,-4.02957 -1.19593,-1.39399 -2.34529,-2.83288 -3.43107,-4.31418 -0.91544,-1.46853 -1.74074,-2.98278 -2.51965,-4.5279 -0.95007,-1.59113 -1.76247,-3.25689 -2.70725,-4.85093 -0.78362,-1.21473 -1.53673,-2.4472 -2.29801,-3.67286 0,0 9.01317,-5.13196 9.01317,-5.13196 z"
       inkscape:connector-curvature="0" />
    <path
       style="opacity:1;fill:#fcb519;fill-opacity:1;fill-rule:evenodd;stroke:#000000;stroke-width:1.55152321;stroke-miterlimit:4;stroke-dasharray:none;stroke-opacity:1"
       id="path8150"
       d="m 508.53512,390.72985 c -0.23949,2.11124 -0.79855,4.16374 -1.15961,6.25345 -0.68449,4.21179 -1.69016,8.36703 -2.6057,12.53428 -0.72471,2.90646 -1.11471,5.87779 -1.67971,8.81463 -0.84145,3.4174 -1.53977,6.83439 -1.95718,10.33251 -0.16737,1.40437 -0.38999,2.80087 -0.62135,4.19575 0,0 -10.14612,4.89471 -10.14612,4.89471 l 0,0 c 0.38602,-1.40517 0.74787,-2.8173 0.98166,-4.25774 0.45386,-3.42929 0.84781,-6.86916 1.59345,-10.24914 0.65862,-3.03328 1.3511,-6.05806 2.1384,-9.06363 0.95543,-4.04142 1.82894,-8.11835 2.1589,-12.26565 0.38454,-1.98271 0.90938,-3.9469 1.04478,-5.96527 0,0 10.25248,-5.2239 10.25248,-5.2239 z"
       inkscape:connector-curvature="0" />
  </g>
</svg>
